<svg width="238" height="57" viewBox="0 0 238 57" fill="none" xmlns="http://www.w3.org/2000/svg">
<path d="M227.093 0.265748C226.363 -2.83319 216.873 21.9583 209.025 33.625C204.462 41.0989 198.622 46.9322 192.964 50.578C194.972 52.4009 196.979 54.2238 198.987 55.8644C210.485 57.1405 222.165 58.5988 231.838 52.2186C246.804 40.7343 230.196 14.1198 227.093 0.265748ZM225.633 6.28134C224.721 20.8646 237.131 57.8696 215.048 56.0467C196.067 54.2238 190.227 47.479 212.31 52.9478C234.393 58.4165 222.53 19.5886 225.633 6.28134Z" fill="#537000"/>
<path d="M198.498 55.8647C188.46 52.948 175.502 40.0054 159.806 39.8231C169.479 40.1877 184.262 51.8543 192.475 55.3178C188.277 54.9532 184.079 54.7709 180.064 55.1355C177.692 55.3178 174.954 54.7709 173.859 53.8595C167.289 47.6616 160.901 42.5575 154.878 39.4585C153.236 38.7294 169.661 33.9898 186.087 41.8283C202.148 48.2085 219.978 59.3258 231.841 52.2165C222.246 58.6102 210.178 57.1407 198.498 55.8647Z" fill="#99A800"/>
<path d="M12.4603 19.8529C15.2655 19.592 16.4072 17.9284 16.4072 14.6992C16.4072 10.0674 14.3196 8.82786 8.44822 8.82786C4.66446 8.82786 2.54425 8.86048 0 9.0888V31.5956C2.83782 31.824 5.18636 31.8566 9.49201 31.8566C14.8741 31.8566 17.1248 30.6171 17.1248 25.9852C17.1248 22.3972 15.9179 20.277 12.4603 19.9834V19.8529ZM11.6448 15.3842C11.6448 17.7001 10.8946 18.2872 8.48083 18.2872H4.86017V12.579H8.21989C10.8294 12.579 11.6448 13.1009 11.6448 15.3842ZM4.86017 28.1054V21.5817H8.51345C11.3187 21.6143 12.1341 22.2993 12.1341 25.0393C12.1341 27.5509 11.3513 28.1054 8.64393 28.1054H4.86017Z" fill="#537000"/>
<path d="M25.7269 31.5956V9.0888H20.7689V31.5956H25.7269Z" fill="#537000"/>
<path d="M39.1655 8.66476C32.0546 8.66476 29.543 11.3069 29.543 20.3422C29.543 29.3776 32.0546 32.0197 39.1655 32.0197C46.2764 32.0197 48.8206 29.3776 48.8206 20.3422C48.8206 11.3069 46.2764 8.66476 39.1655 8.66476ZM39.1655 12.6768C42.5578 12.6768 43.569 14.373 43.569 20.3422C43.569 26.3114 42.5578 28.0076 39.1655 28.0076C35.7732 28.0076 34.762 26.3114 34.762 20.3422C34.762 14.373 35.7732 12.6768 39.1655 12.6768Z" fill="#537000"/>
<path d="M53.2506 38.0307V13.9922H55.1298C55.5789 13.9922 55.8625 14.2108 55.9807 14.6481L56.2466 16.7754C57.0148 15.8417 57.8893 15.0913 58.8703 14.524C59.863 13.9567 61.0035 13.6731 62.2917 13.6731C63.3199 13.6731 64.2535 13.874 65.0926 14.2758C65.9317 14.6658 66.6467 15.2508 67.2376 16.0308C67.8286 16.799 68.2836 17.7563 68.6027 18.9027C68.9217 20.0491 69.0813 21.3668 69.0813 22.8559C69.0813 24.1796 68.904 25.4146 68.5495 26.561C68.1949 27.6955 67.6867 28.6824 67.0249 29.5215C66.3631 30.3488 65.5476 31.0047 64.5785 31.4892C63.6212 31.962 62.5398 32.1983 61.3344 32.1983C60.2235 32.1983 59.2721 32.0151 58.4803 31.6488C57.7002 31.2824 57.0089 30.7624 56.4061 30.0887V38.0307H53.2506ZM61.2457 16.2258C60.2175 16.2258 59.3134 16.4622 58.5334 16.9349C57.7652 17.4077 57.0561 18.0754 56.4061 18.9382V27.6246C56.9852 28.4046 57.6175 28.9542 58.303 29.2733C59.0003 29.5924 59.7744 29.7519 60.6253 29.7519C62.2917 29.7519 63.574 29.1551 64.4721 27.9614C65.3703 26.7678 65.8194 25.066 65.8194 22.8559C65.8194 21.6859 65.7131 20.6814 65.5003 19.8423C65.2994 19.0032 65.004 18.3177 64.614 17.7859C64.224 17.2422 63.7453 16.8463 63.178 16.5981C62.6108 16.3499 61.9667 16.2258 61.2457 16.2258Z" fill="#4D4D4D"/>
<path d="M78.2555 32.2338C76.8373 32.2338 75.7442 31.8379 74.976 31.046C74.2196 30.2542 73.8414 29.1137 73.8414 27.6246V16.6336H71.6786C71.4896 16.6336 71.33 16.5804 71.2 16.474C71.07 16.3558 71.005 16.1786 71.005 15.9422V14.6836L73.9478 14.3113L74.6746 8.76257C74.6982 8.58529 74.7751 8.44347 74.9051 8.33711C75.0351 8.21893 75.2005 8.15983 75.4014 8.15983H76.9969V14.3467H82.1379V16.6336H76.9969V27.4119C76.9969 28.1683 77.1801 28.7296 77.5464 29.096C77.9128 29.4624 78.3856 29.6456 78.9647 29.6456C79.2956 29.6456 79.5792 29.6042 79.8156 29.5215C80.0638 29.4269 80.2765 29.3265 80.4538 29.2201C80.631 29.1137 80.7788 29.0192 80.8969 28.9365C81.0269 28.8419 81.1392 28.7946 81.2338 28.7946C81.3992 28.7946 81.547 28.8951 81.677 29.096L82.5988 30.6028C82.0551 31.111 81.3992 31.5129 80.631 31.8083C79.8628 32.092 79.071 32.2338 78.2555 32.2338Z" fill="#4D4D4D"/>
<path d="M89.5496 13.9922V31.9501H86.3941V13.9922H89.5496ZM90.2587 8.35484C90.2587 8.66211 90.1937 8.95166 90.0637 9.22348C89.9455 9.48349 89.7801 9.71985 89.5674 9.93258C89.3664 10.1335 89.1301 10.293 88.8583 10.4112C88.5864 10.5294 88.2969 10.5885 87.9896 10.5885C87.6823 10.5885 87.3928 10.5294 87.121 10.4112C86.861 10.293 86.6246 10.1335 86.4119 9.93258C86.2109 9.71985 86.0514 9.48349 85.9332 9.22348C85.815 8.95166 85.7559 8.66211 85.7559 8.35484C85.7559 8.04756 85.815 7.75801 85.9332 7.48619C86.0514 7.20255 86.2109 6.96027 86.4119 6.75936C86.6246 6.54663 86.861 6.38118 87.121 6.26299C87.3928 6.14481 87.6823 6.08572 87.9896 6.08572C88.2969 6.08572 88.5864 6.14481 88.8583 6.26299C89.1301 6.38118 89.3664 6.54663 89.5674 6.75936C89.7801 6.96027 89.9455 7.20255 90.0637 7.48619C90.1937 7.75801 90.2587 8.04756 90.2587 8.35484Z" fill="#4D4D4D"/>
<path d="M95.1111 31.9501V13.9922H96.9902C97.4393 13.9922 97.7229 14.2108 97.8411 14.6481L98.0716 16.4918C98.7334 15.6763 99.472 15.0086 100.288 14.4886C101.115 13.9685 102.072 13.7085 103.159 13.7085C104.377 13.7085 105.358 14.0454 106.102 14.719C106.858 15.3927 107.402 16.3027 107.733 17.449C107.981 16.799 108.306 16.2377 108.708 15.7649C109.122 15.2922 109.583 14.9022 110.091 14.5949C110.599 14.2876 111.137 14.0631 111.704 13.9213C112.283 13.7795 112.868 13.7085 113.459 13.7085C114.404 13.7085 115.244 13.8622 115.976 14.1695C116.721 14.4649 117.347 14.9022 117.855 15.4813C118.375 16.0604 118.771 16.7754 119.043 17.6263C119.315 18.4654 119.451 19.4286 119.451 20.5159V31.9501H116.295V20.5159C116.295 19.1095 115.988 18.0459 115.374 17.3249C114.759 16.5922 113.867 16.2258 112.697 16.2258C112.177 16.2258 111.68 16.3204 111.208 16.5095C110.747 16.6868 110.339 16.9527 109.984 17.3072C109.63 17.6618 109.346 18.1109 109.134 18.6545C108.933 19.1863 108.832 19.8068 108.832 20.5159V31.9501H105.677V20.5159C105.677 19.0741 105.387 17.9986 104.808 17.2895C104.229 16.5804 103.384 16.2258 102.273 16.2258C101.493 16.2258 100.766 16.4386 100.093 16.864C99.4307 17.2777 98.822 17.845 98.2666 18.5659V31.9501H95.1111Z" fill="#4D4D4D"/>
<path d="M127.74 13.9922V31.9501H124.584V13.9922H127.74ZM128.449 8.35484C128.449 8.66211 128.384 8.95166 128.254 9.22348C128.136 9.48349 127.97 9.71985 127.758 9.93258C127.557 10.1335 127.32 10.293 127.049 10.4112C126.777 10.5294 126.487 10.5885 126.18 10.5885C125.873 10.5885 125.583 10.5294 125.311 10.4112C125.051 10.293 124.815 10.1335 124.602 9.93258C124.401 9.71985 124.242 9.48349 124.124 9.22348C124.005 8.95166 123.946 8.66211 123.946 8.35484C123.946 8.04756 124.005 7.75801 124.124 7.48619C124.242 7.20255 124.401 6.96027 124.602 6.75936C124.815 6.54663 125.051 6.38118 125.311 6.26299C125.583 6.14481 125.873 6.08572 126.18 6.08572C126.487 6.08572 126.777 6.14481 127.049 6.26299C127.32 6.38118 127.557 6.54663 127.758 6.75936C127.97 6.96027 128.136 7.20255 128.254 7.48619C128.384 7.75801 128.449 8.04756 128.449 8.35484Z" fill="#4D4D4D"/>
<path d="M145.835 15.3395C145.835 15.564 145.793 15.7827 145.711 15.9954C145.628 16.1963 145.522 16.3795 145.392 16.5449L135.677 29.486H145.48V31.9501H131.954V30.6383C131.954 30.4847 131.99 30.3074 132.06 30.1065C132.143 29.8937 132.255 29.6928 132.397 29.5037L142.165 16.474H132.504V13.9922H145.835V15.3395Z" fill="#4D4D4D"/>
<path d="M156.787 13.7085C157.863 13.7085 158.855 13.8917 159.765 14.2581C160.675 14.6126 161.461 15.1327 162.123 15.8181C162.785 16.4918 163.299 17.3309 163.666 18.3354C164.044 19.3282 164.233 20.4627 164.233 21.7391C164.233 22.2355 164.18 22.5664 164.073 22.7318C163.967 22.8973 163.766 22.98 163.471 22.98H151.522C151.546 24.1146 151.699 25.1014 151.983 25.9405C152.267 26.7796 152.657 27.4828 153.153 28.0501C153.649 28.6055 154.24 29.0251 154.926 29.3087C155.611 29.5806 156.38 29.7165 157.23 29.7165C158.022 29.7165 158.702 29.6278 159.269 29.4506C159.848 29.2615 160.345 29.0606 160.758 28.8478C161.172 28.6351 161.515 28.4401 161.786 28.2628C162.07 28.0737 162.312 27.9792 162.513 27.9792C162.773 27.9792 162.974 28.0796 163.116 28.2805L164.002 29.4328C163.612 29.9056 163.146 30.3192 162.602 30.6738C162.058 31.0165 161.473 31.3001 160.847 31.5247C160.232 31.7492 159.594 31.9147 158.932 32.021C158.27 32.1392 157.615 32.1983 156.965 32.1983C155.724 32.1983 154.577 31.9915 153.525 31.5779C152.485 31.1524 151.581 30.5378 150.813 29.7342C150.057 28.9187 149.466 27.9142 149.04 26.7205C148.615 25.5269 148.402 24.1559 148.402 22.6077C148.402 21.355 148.591 20.185 148.969 19.0977C149.359 18.0104 149.915 17.0709 150.636 16.279C151.357 15.4754 152.237 14.849 153.277 14.3999C154.317 13.939 155.487 13.7085 156.787 13.7085ZM156.858 16.0308C155.334 16.0308 154.134 16.474 153.259 17.3604C152.385 18.235 151.841 19.4523 151.629 21.0123H161.396C161.396 20.2795 161.296 19.6118 161.095 19.0091C160.894 18.3945 160.599 17.8686 160.209 17.4313C159.819 16.9822 159.34 16.6395 158.773 16.4031C158.217 16.1549 157.579 16.0308 156.858 16.0308Z" fill="#4D4D4D"/>
<path d="M168.272 31.9501V13.9922H170.08C170.423 13.9922 170.659 14.0572 170.789 14.1872C170.919 14.3172 171.008 14.5417 171.055 14.8608L171.268 17.6618C171.882 16.409 172.638 15.434 173.537 14.7367C174.447 14.0276 175.51 13.6731 176.728 13.6731C177.224 13.6731 177.673 13.7322 178.075 13.8504C178.477 13.9567 178.849 14.1104 179.192 14.3113L178.784 16.669C178.701 16.9645 178.518 17.1122 178.234 17.1122C178.069 17.1122 177.815 17.059 177.472 16.9527C177.129 16.8345 176.651 16.7754 176.036 16.7754C174.937 16.7754 174.015 17.0945 173.271 17.7327C172.538 18.3709 171.923 19.2986 171.427 20.5159V31.9501H168.272Z" fill="#4D4D4D"/>
<path d="M192.853 16.9527C192.711 17.2127 192.493 17.3427 192.197 17.3427C192.02 17.3427 191.819 17.2777 191.595 17.1477C191.37 17.0177 191.092 16.8759 190.761 16.7222C190.442 16.5568 190.058 16.409 189.609 16.279C189.16 16.1372 188.628 16.0663 188.014 16.0663C187.482 16.0663 187.003 16.1372 186.578 16.279C186.152 16.409 185.786 16.5922 185.479 16.8286C185.183 17.0649 184.953 17.3427 184.787 17.6618C184.634 17.969 184.557 18.3059 184.557 18.6722C184.557 19.1332 184.687 19.5173 184.947 19.8245C185.219 20.1318 185.573 20.3977 186.01 20.6223C186.448 20.8468 186.944 21.0477 187.5 21.225C188.055 21.3905 188.622 21.5736 189.201 21.7746C189.792 21.9636 190.366 22.1764 190.921 22.4127C191.476 22.6491 191.973 22.9446 192.41 23.2991C192.847 23.6537 193.196 24.0909 193.456 24.611C193.728 25.1191 193.864 25.7337 193.864 26.4546C193.864 27.2819 193.716 28.0501 193.421 28.7592C193.125 29.4565 192.688 30.0651 192.109 30.5851C191.53 31.0933 190.821 31.4951 189.981 31.7906C189.142 32.086 188.173 32.2338 187.074 32.2338C185.821 32.2338 184.687 32.0329 183.67 31.631C182.654 31.2174 181.791 30.6915 181.082 30.0533L181.827 28.8478C181.921 28.6942 182.034 28.576 182.164 28.4933C182.294 28.4105 182.465 28.3692 182.678 28.3692C182.89 28.3692 183.115 28.4519 183.351 28.6174C183.588 28.7828 183.871 28.966 184.202 29.1669C184.545 29.3678 184.953 29.551 185.425 29.7165C185.91 29.8819 186.513 29.9647 187.234 29.9647C187.848 29.9647 188.386 29.8878 188.847 29.7342C189.308 29.5687 189.692 29.3501 189.999 29.0783C190.306 28.8065 190.531 28.4933 190.673 28.1387C190.826 27.7842 190.903 27.406 190.903 27.0042C190.903 26.5078 190.767 26.1001 190.496 25.781C190.236 25.4501 189.887 25.1723 189.45 24.9478C189.012 24.7114 188.51 24.5105 187.943 24.345C187.387 24.1678 186.814 23.9846 186.223 23.7955C185.644 23.6064 185.071 23.3937 184.504 23.1573C183.948 22.9091 183.452 22.6018 183.015 22.2355C182.577 21.8691 182.223 21.42 181.951 20.8882C181.691 20.3445 181.561 19.6886 181.561 18.9204C181.561 18.235 181.703 17.579 181.986 16.9527C182.27 16.3145 182.684 15.759 183.227 15.2863C183.771 14.8017 184.439 14.4176 185.23 14.134C186.022 13.8504 186.926 13.7085 187.943 13.7085C189.125 13.7085 190.182 13.8976 191.116 14.2758C192.061 14.6422 192.877 15.1504 193.562 15.8004L192.853 16.9527Z" fill="#4D4D4D"/>
<path d="M197 16.0055C197 15.637 197.047 15.2832 197.142 14.9439C197.237 14.601 197.371 14.2818 197.542 13.9863C197.717 13.6872 197.927 13.4172 198.172 13.1765C198.416 12.9321 198.687 12.7223 198.982 12.5472C199.278 12.3721 199.595 12.2371 199.935 12.1423C200.274 12.0474 200.629 12 200.997 12C201.366 12 201.72 12.0474 202.06 12.1423C202.403 12.2371 202.722 12.3721 203.018 12.5472C203.313 12.7223 203.584 12.9321 203.828 13.1765C204.073 13.4172 204.281 13.6872 204.452 13.9863C204.628 14.2818 204.763 14.601 204.858 14.9439C204.953 15.2832 205 15.637 205 16.0055C205 16.3703 204.953 16.7241 204.858 17.067C204.763 17.4063 204.628 17.7237 204.452 18.0192C204.281 18.3146 204.073 18.5846 203.828 18.829C203.584 19.0698 203.313 19.2777 203.018 19.4528C202.722 19.6279 202.403 19.7629 202.06 19.8577C201.72 19.9526 201.366 20 200.997 20C200.629 20 200.274 19.9526 199.935 19.8577C199.595 19.7629 199.278 19.6279 198.982 19.4528C198.687 19.2777 198.416 19.0698 198.172 18.829C197.927 18.5846 197.717 18.3146 197.542 18.0192C197.371 17.7237 197.237 17.4063 197.142 17.067C197.047 16.7278 197 16.3739 197 16.0055ZM197.548 16.0055C197.548 16.3301 197.588 16.642 197.668 16.9412C197.748 17.2403 197.863 17.5212 198.013 17.7839C198.163 18.0429 198.342 18.2782 198.55 18.4897C198.758 18.7013 198.99 18.8837 199.245 19.0369C199.501 19.1865 199.776 19.3032 200.072 19.3871C200.368 19.4674 200.676 19.5075 200.997 19.5075C201.479 19.5075 201.93 19.4163 202.35 19.2339C202.773 19.0515 203.14 18.8035 203.45 18.4897C203.764 18.1724 204.011 17.8021 204.19 17.3789C204.372 16.9521 204.463 16.4943 204.463 16.0055C204.463 15.6808 204.421 15.3671 204.337 15.0643C204.257 14.7615 204.142 14.4806 203.992 14.2216C203.843 13.959 203.662 13.72 203.45 13.5048C203.242 13.2896 203.01 13.1072 202.755 12.9576C202.499 12.8044 202.222 12.6858 201.923 12.6019C201.627 12.518 201.319 12.4761 200.997 12.4761C200.515 12.4761 200.065 12.5691 199.645 12.7551C199.225 12.9375 198.86 13.1892 198.55 13.5103C198.239 13.8276 197.995 14.2016 197.816 14.632C197.637 15.0588 197.548 15.5166 197.548 16.0055ZM200.209 16.4979V18.435H199.355V13.554H200.932C201.559 13.554 202.025 13.6689 202.328 13.8988C202.631 14.1249 202.782 14.4606 202.782 14.9056C202.782 15.2485 202.684 15.5404 202.487 15.7811C202.293 16.0219 202.003 16.1879 201.616 16.2791C201.678 16.3155 201.731 16.3611 201.775 16.4159C201.822 16.4706 201.866 16.5344 201.906 16.6074L203.155 18.435H202.344C202.224 18.435 202.134 18.3894 202.076 18.2982L200.975 16.6457C200.943 16.5983 200.902 16.5618 200.855 16.5363C200.811 16.5107 200.742 16.4979 200.647 16.4979H200.209ZM200.209 15.8741H200.844C201.045 15.8741 201.214 15.8559 201.353 15.8194C201.496 15.7793 201.609 15.7228 201.693 15.6498C201.78 15.5768 201.842 15.4875 201.879 15.3817C201.919 15.2759 201.939 15.1537 201.939 15.015C201.939 14.8801 201.921 14.7615 201.884 14.6594C201.851 14.5572 201.795 14.4733 201.715 14.4077C201.638 14.342 201.536 14.2927 201.408 14.2599C201.28 14.2271 201.121 14.2107 200.932 14.2107H200.209V15.8741Z" fill="#4D4D4D"/>
<path d="M25.0612 4.56921C25.0168 4.37833 24.4396 5.90537 23.9623 6.62398C23.6848 7.08433 23.3296 7.44364 22.9855 7.6682C23.1076 7.78048 23.2297 7.89277 23.3518 7.99382C24.0511 8.07242 24.7615 8.16224 25.3498 7.76926C26.26 7.06188 25.2499 5.42256 25.0612 4.56921ZM24.9724 4.93974C24.9169 5.838 25.6717 8.11733 24.3286 8.00505C23.1742 7.89277 22.819 7.47732 24.1621 7.81417C25.5052 8.15102 24.7837 5.7594 24.9724 4.93974Z" fill="#537000"/>
<path d="M23.3092 7.9937C22.6849 7.81542 21.8791 7.0243 20.903 7.01315C21.5046 7.03544 22.4239 7.74856 22.9346 7.96027C22.6736 7.93798 22.4125 7.92684 22.1629 7.94913C22.0153 7.96027 21.8451 7.92684 21.777 7.87113C21.3684 7.49228 20.9711 7.18029 20.5966 6.99087C20.4944 6.9463 21.5159 6.65659 22.5374 7.13572C23.5362 7.52571 24.645 8.20526 25.3828 7.7707C24.786 8.16152 24.0356 8.07169 23.3092 7.9937Z" fill="#99A800"/>
<path d="M8.41705 49.4655C8.41705 50.0475 8.32005 50.5874 8.12605 51.0852C7.93205 51.5794 7.65935 52.0076 7.30796 52.37C6.95657 52.7324 6.53379 53.0161 6.03965 53.221C5.5455 53.4223 4.99827 53.523 4.39798 53.523C3.79768 53.523 3.24862 53.4223 2.75081 53.221C2.25667 53.0161 1.83206 52.7324 1.47701 52.37C1.12561 52.0076 0.852917 51.5794 0.658918 51.0852C0.464919 50.5874 0.36792 50.0475 0.36792 49.4655C0.36792 48.8835 0.464919 48.3454 0.658918 47.8513C0.852917 47.3535 1.12561 46.9234 1.47701 46.561C1.83206 46.1986 2.25667 45.9168 2.75081 45.7155C3.24862 45.5105 3.79768 45.408 4.39798 45.408C4.99827 45.408 5.5455 45.5105 6.03965 45.7155C6.53379 45.9204 6.95657 46.2041 7.30796 46.5665C7.65935 46.9252 7.93205 47.3535 8.12605 47.8513C8.32005 48.3454 8.41705 48.8835 8.41705 49.4655ZM6.90166 49.4655C6.90166 49.0299 6.84309 48.6401 6.72596 48.296C6.61249 47.9483 6.44778 47.6536 6.23181 47.412C6.01585 47.1705 5.75231 46.9856 5.44118 46.8575C5.13371 46.7294 4.78597 46.6653 4.39798 46.6653C4.00998 46.6653 3.66041 46.7294 3.34928 46.8575C3.03815 46.9856 2.77278 47.1705 2.55315 47.412C2.33719 47.6536 2.17065 47.9483 2.05352 48.296C1.93638 48.6401 1.87782 49.0299 1.87782 49.4655C1.87782 49.9011 1.93638 50.2927 2.05352 50.6405C2.17065 50.9846 2.33719 51.2774 2.55315 51.519C2.77278 51.7569 3.03815 51.9399 3.34928 52.068C3.66041 52.1961 4.00998 52.2602 4.39798 52.2602C4.78597 52.2602 5.13371 52.1961 5.44118 52.068C5.75231 51.9399 6.01585 51.7569 6.23181 51.519C6.44778 51.2774 6.61249 50.9846 6.72596 50.6405C6.84309 50.2927 6.90166 49.9011 6.90166 49.4655Z" fill="#4D4D4D"/>
<path d="M9.61733 55.2745V47.8019H10.4464C10.5343 47.8019 10.6093 47.822 10.6715 47.8623C10.7337 47.9025 10.774 47.9648 10.7923 48.0489L10.9021 48.5705C11.1291 48.3107 11.3889 48.1002 11.6818 47.9391C11.9783 47.7781 12.3242 47.6975 12.7195 47.6975C13.027 47.6975 13.307 47.7616 13.5595 47.8897C13.8158 48.0178 14.0354 48.2045 14.2184 48.4498C14.4051 48.6913 14.5478 48.9915 14.6467 49.3502C14.7492 49.7053 14.8004 50.1134 14.8004 50.5746C14.8004 50.9955 14.7437 51.3854 14.6302 51.7441C14.5167 52.1028 14.3538 52.4139 14.1415 52.6775C13.9329 52.941 13.6785 53.1478 13.3783 53.2979C13.0819 53.4443 12.7488 53.5175 12.3791 53.5175C12.0606 53.5175 11.7898 53.4699 11.5665 53.3748C11.3469 53.2759 11.1492 53.1405 10.9735 52.9685V55.2745H9.61733ZM12.2528 48.7682C11.9709 48.7682 11.7294 48.8286 11.528 48.9494C11.3304 49.0665 11.1455 49.2331 10.9735 49.449V51.9747C11.1272 52.165 11.2938 52.2986 11.4731 52.3755C11.6562 52.4487 11.852 52.4853 12.0606 52.4853C12.2656 52.4853 12.4504 52.4469 12.6152 52.37C12.7835 52.2931 12.9245 52.176 13.0379 52.0186C13.1551 51.8612 13.2447 51.6635 13.307 51.4256C13.3692 51.184 13.4003 50.9004 13.4003 50.5746C13.4003 50.2452 13.3729 49.967 13.318 49.74C13.2667 49.5094 13.1917 49.3227 13.0928 49.18C12.994 49.0372 12.8732 48.9329 12.7305 48.867C12.5914 48.8011 12.4321 48.7682 12.2528 48.7682Z" fill="#4D4D4D"/>
<path d="M17.7865 53.523C17.2997 53.523 16.9245 53.3857 16.6609 53.1112C16.3974 52.833 16.2656 52.4505 16.2656 51.9637V48.8176H15.6946C15.6214 48.8176 15.5573 48.7938 15.5024 48.7462C15.4512 48.6987 15.4255 48.6273 15.4255 48.5321V47.994L16.3315 47.8458L16.617 46.3084C16.6316 46.2352 16.6646 46.1785 16.7158 46.1382C16.7707 46.098 16.8384 46.0778 16.919 46.0778H17.6218V47.8513H19.1042V48.8176H17.6218V51.8704C17.6218 52.0461 17.6657 52.1833 17.7535 52.2821C17.8414 52.381 17.9585 52.4304 18.1049 52.4304C18.1891 52.4304 18.2587 52.4212 18.3136 52.4029C18.3721 52.381 18.4216 52.359 18.4618 52.3371C18.5057 52.3151 18.5442 52.295 18.5771 52.2767C18.6101 52.2547 18.643 52.2437 18.6759 52.2437C18.7162 52.2437 18.7492 52.2547 18.7748 52.2767C18.8004 52.295 18.8279 52.3242 18.8571 52.3645L19.2634 53.0234C19.0658 53.1881 18.8388 53.3125 18.5826 53.3967C18.3264 53.4809 18.061 53.523 17.7865 53.523Z" fill="#4D4D4D"/>
<path d="M21.7366 47.8019V53.4352H20.3804V47.8019H21.7366ZM21.9397 46.1602C21.9397 46.2773 21.9159 46.3871 21.8684 46.4896C21.8208 46.5921 21.7567 46.6818 21.6762 46.7587C21.5993 46.8355 21.5078 46.8978 21.4017 46.9453C21.2955 46.9893 21.182 47.0112 21.0612 47.0112C20.9441 47.0112 20.8325 46.9893 20.7263 46.9453C20.6238 46.8978 20.5342 46.8355 20.4573 46.7587C20.3804 46.6818 20.3182 46.5921 20.2706 46.4896C20.2267 46.3871 20.2047 46.2773 20.2047 46.1602C20.2047 46.0394 20.2267 45.9259 20.2706 45.8198C20.3182 45.7136 20.3804 45.6221 20.4573 45.5453C20.5342 45.4684 20.6238 45.408 20.7263 45.3641C20.8325 45.3165 20.9441 45.2927 21.0612 45.2927C21.182 45.2927 21.2955 45.3165 21.4017 45.3641C21.5078 45.408 21.5993 45.4684 21.6762 45.5453C21.7567 45.6221 21.8208 45.7136 21.8684 45.8198C21.9159 45.9259 21.9397 46.0394 21.9397 46.1602Z" fill="#4D4D4D"/>
<path d="M23.3836 53.4352V47.8019H24.2126C24.3883 47.8019 24.5036 47.8842 24.5585 48.0489L24.6464 48.4662C24.7452 48.3564 24.8477 48.2558 24.9539 48.1642C25.0637 48.0727 25.179 47.994 25.2998 47.9282C25.4242 47.8623 25.556 47.811 25.6951 47.7744C25.8378 47.7342 25.9934 47.714 26.1618 47.714C26.5168 47.714 26.8078 47.811 27.0348 48.005C27.2654 48.1954 27.4374 48.4498 27.5509 48.7682C27.6387 48.5815 27.7485 48.4223 27.8803 48.2905C28.0121 48.1551 28.1567 48.0453 28.3141 47.9611C28.4715 47.8769 28.638 47.8147 28.8137 47.7744C28.9931 47.7342 29.1724 47.714 29.3518 47.714C29.6629 47.714 29.9393 47.7616 30.1809 47.8568C30.4224 47.9519 30.6256 48.091 30.7903 48.2741C30.955 48.4571 31.0795 48.6804 31.1637 48.9439C31.2515 49.2074 31.2954 49.5094 31.2954 49.8498V53.4352H29.9393V49.8498C29.9393 49.4911 29.8606 49.2221 29.7032 49.0427C29.5458 48.8597 29.3152 48.7682 29.0114 48.7682C28.8723 48.7682 28.7423 48.792 28.6215 48.8396C28.5044 48.8872 28.4001 48.9567 28.3086 49.0482C28.2207 49.1361 28.1512 49.2477 28.0999 49.3831C28.0487 49.5186 28.0231 49.6741 28.0231 49.8498V53.4352H26.6614V49.8498C26.6614 49.4728 26.5846 49.1983 26.4308 49.0263C26.2807 48.8542 26.0575 48.7682 25.761 48.7682C25.567 48.7682 25.384 48.8176 25.2119 48.9164C25.0435 49.0116 24.8861 49.1434 24.7397 49.3118V53.4352H23.3836Z" fill="#4D4D4D"/>
<path d="M34.1812 47.8019V53.4352H32.8251V47.8019H34.1812ZM34.3844 46.1602C34.3844 46.2773 34.3606 46.3871 34.313 46.4896C34.2654 46.5921 34.2014 46.6818 34.1208 46.7587C34.044 46.8355 33.9525 46.8978 33.8463 46.9453C33.7402 46.9893 33.6267 47.0112 33.5059 47.0112C33.3888 47.0112 33.2771 46.9893 33.171 46.9453C33.0685 46.8978 32.9788 46.8355 32.9019 46.7587C32.8251 46.6818 32.7628 46.5921 32.7152 46.4896C32.6713 46.3871 32.6494 46.2773 32.6494 46.1602C32.6494 46.0394 32.6713 45.9259 32.7152 45.8198C32.7628 45.7136 32.8251 45.6221 32.9019 45.5453C32.9788 45.4684 33.0685 45.408 33.171 45.3641C33.2771 45.3165 33.3888 45.2927 33.5059 45.2927C33.6267 45.2927 33.7402 45.3165 33.8463 45.3641C33.9525 45.408 34.044 45.4684 34.1208 45.5453C34.2014 45.6221 34.2654 45.7136 34.313 45.8198C34.3606 45.9259 34.3844 46.0394 34.3844 46.1602Z" fill="#4D4D4D"/>
<path d="M39.9022 48.3619C39.9022 48.4571 39.8839 48.5504 39.8473 48.6419C39.8143 48.7298 39.7741 48.8048 39.7265 48.867L37.0471 52.392H39.8253V53.4352H35.4713V52.8696C35.4713 52.8074 35.486 52.7342 35.5153 52.65C35.5445 52.5622 35.5903 52.4798 35.6525 52.4029L38.3539 48.8396H35.6306V47.8019H39.9022V48.3619Z" fill="#4D4D4D"/>
<path d="M42.5401 47.8019V53.4352H41.184V47.8019H42.5401ZM42.7433 46.1602C42.7433 46.2773 42.7195 46.3871 42.6719 46.4896C42.6243 46.5921 42.5603 46.6818 42.4797 46.7587C42.4029 46.8355 42.3114 46.8978 42.2052 46.9453C42.0991 46.9893 41.9856 47.0112 41.8648 47.0112C41.7477 47.0112 41.636 46.9893 41.5299 46.9453C41.4274 46.8978 41.3377 46.8355 41.2608 46.7587C41.184 46.6818 41.1217 46.5921 41.0742 46.4896C41.0302 46.3871 41.0083 46.2773 41.0083 46.1602C41.0083 46.0394 41.0302 45.9259 41.0742 45.8198C41.1217 45.7136 41.184 45.6221 41.2608 45.5453C41.3377 45.4684 41.4274 45.408 41.5299 45.3641C41.636 45.3165 41.7477 45.2927 41.8648 45.2927C41.9856 45.2927 42.0991 45.3165 42.2052 45.3641C42.3114 45.408 42.4029 45.4684 42.4797 45.5453C42.5603 45.6221 42.6243 45.7136 42.6719 45.8198C42.7195 45.9259 42.7433 46.0394 42.7433 46.1602Z" fill="#4D4D4D"/>
<path d="M44.1871 53.4352V47.8019H45.0162C45.1919 47.8019 45.3072 47.8842 45.3621 48.0489L45.4554 48.4937C45.5689 48.3765 45.6879 48.2704 45.8123 48.1752C45.9404 48.0801 46.074 47.9977 46.2131 47.9282C46.3559 47.8586 46.5078 47.8055 46.6689 47.7689C46.8299 47.7323 47.0056 47.714 47.1959 47.714C47.5034 47.714 47.7761 47.7671 48.014 47.8732C48.252 47.9757 48.4496 48.1222 48.607 48.3125C48.7681 48.4992 48.8889 48.7243 48.9694 48.9878C49.0536 49.2477 49.0957 49.535 49.0957 49.8498V53.4352H47.7395V49.8498C47.7395 49.5058 47.659 49.2404 47.4979 49.0537C47.3405 48.8634 47.1026 48.7682 46.7842 48.7682C46.5499 48.7682 46.3303 48.8213 46.1253 48.9274C45.9203 49.0336 45.7263 49.1782 45.5433 49.3612V53.4352H44.1871Z" fill="#4D4D4D"/>
<path d="M52.4873 47.703C52.7289 47.703 52.9558 47.7287 53.1681 47.7799C53.3804 47.8275 53.5744 47.8989 53.7501 47.994H55.3698V48.4992C55.3698 48.5834 55.3479 48.6492 55.3039 48.6968C55.26 48.7444 55.185 48.7774 55.0788 48.7957L54.5737 48.889C54.6103 48.9842 54.6377 49.0848 54.656 49.191C54.678 49.2971 54.689 49.4088 54.689 49.5259C54.689 49.8041 54.6323 50.0567 54.5188 50.2836C54.409 50.5069 54.2552 50.6972 54.0576 50.8546C53.8636 51.012 53.6311 51.1346 53.3603 51.2225C53.0931 51.3067 52.8021 51.3488 52.4873 51.3488C52.275 51.3488 52.0682 51.3286 51.8668 51.2884C51.6912 51.3945 51.6033 51.5135 51.6033 51.6452C51.6033 51.7587 51.6545 51.8429 51.757 51.8978C51.8632 51.9491 52.0005 51.9857 52.1688 52.0076C52.3409 52.0296 52.5349 52.0442 52.7508 52.0515C52.9668 52.0552 53.1882 52.0662 53.4152 52.0845C53.6421 52.1028 53.8636 52.1357 54.0795 52.1833C54.2955 52.2272 54.4877 52.2986 54.656 52.3974C54.8281 52.4963 54.9653 52.6317 55.0678 52.8038C55.174 52.9721 55.2271 53.1899 55.2271 53.4571C55.2271 53.706 55.1648 53.9476 55.0404 54.1819C54.9196 54.4161 54.7421 54.6248 54.5078 54.8078C54.2772 54.9908 53.9935 55.1372 53.6568 55.247C53.32 55.3605 52.9357 55.4172 52.5037 55.4172C52.0755 55.4172 51.704 55.3752 51.3892 55.291C51.0744 55.2104 50.8127 55.1006 50.604 54.9615C50.399 54.8261 50.2453 54.6687 50.1428 54.4893C50.0403 54.31 49.9891 54.1233 49.9891 53.9293C49.9891 53.6658 50.0696 53.4443 50.2307 53.265C50.3917 53.0856 50.615 52.9428 50.9005 52.8367C50.7614 52.7598 50.6498 52.6573 50.5656 52.5292C50.4814 52.4011 50.4393 52.2346 50.4393 52.0296C50.4393 51.9454 50.454 51.8594 50.4832 51.7715C50.5125 51.68 50.5564 51.5903 50.615 51.5025C50.6772 51.4146 50.7541 51.3323 50.8456 51.2554C50.9371 51.1749 51.0451 51.1035 51.1696 51.0413C50.884 50.8876 50.6589 50.6826 50.4942 50.4263C50.3332 50.1701 50.2526 49.87 50.2526 49.5259C50.2526 49.2477 50.3075 48.997 50.4173 48.7737C50.5308 48.5468 50.6864 48.3546 50.884 48.1972C51.0854 48.0361 51.3215 47.9135 51.5923 47.8293C51.8669 47.7451 52.1652 47.703 52.4873 47.703ZM53.9752 53.6877C53.9752 53.5779 53.9423 53.4882 53.8764 53.4187C53.8105 53.3491 53.7208 53.2961 53.6073 53.2595C53.4939 53.2192 53.3603 53.1899 53.2065 53.1716C53.0565 53.1533 52.8954 53.1405 52.7234 53.1332C52.555 53.1222 52.3793 53.1131 52.1963 53.1057C52.0169 53.0947 51.8431 53.0783 51.6747 53.0563C51.5209 53.1405 51.3965 53.2412 51.3013 53.3583C51.2098 53.4718 51.1641 53.6035 51.1641 53.7536C51.1641 53.8524 51.1879 53.944 51.2354 54.0281C51.2867 54.116 51.3654 54.191 51.4715 54.2533C51.5813 54.3155 51.7223 54.3631 51.8943 54.396C52.0663 54.4326 52.2768 54.4509 52.5257 54.4509C52.7783 54.4509 52.9961 54.4308 53.1791 54.3905C53.3621 54.3539 53.5122 54.3008 53.6293 54.2313C53.7501 54.1654 53.838 54.0849 53.8929 53.9897C53.9478 53.8982 53.9752 53.7975 53.9752 53.6877ZM52.4873 50.4813C52.6557 50.4813 52.8021 50.4593 52.9265 50.4154C53.051 50.3678 53.1535 50.3037 53.234 50.2232C53.3182 50.1427 53.3804 50.0457 53.4207 49.9322C53.4646 49.8187 53.4866 49.6943 53.4866 49.5588C53.4866 49.2807 53.4024 49.061 53.234 48.9C53.0693 48.7353 52.8204 48.6529 52.4873 48.6529C52.1542 48.6529 51.9035 48.7353 51.7351 48.9C51.5704 49.061 51.488 49.2807 51.488 49.5588C51.488 49.6906 51.5081 49.8132 51.5484 49.9267C51.5923 50.0402 51.6545 50.139 51.7351 50.2232C51.8193 50.3037 51.9236 50.3678 52.048 50.4154C52.1761 50.4593 52.3226 50.4813 52.4873 50.4813Z" fill="#4D4D4D"/>
<path d="M65.3399 53.4352H63.852V49.9651H60.1294V53.4352H58.6415V45.4958H60.1294V48.911H63.852V45.4958H65.3399V53.4352Z" fill="#4D4D4D"/>
<path d="M69.3026 47.714C69.6576 47.714 69.9834 47.7708 70.2799 47.8842C70.58 47.9977 70.8381 48.1642 71.054 48.3839C71.27 48.5998 71.4384 48.867 71.5592 49.1855C71.68 49.5003 71.7404 49.8608 71.7404 50.2671C71.7404 50.3696 71.7349 50.4556 71.7239 50.5252C71.7166 50.5911 71.7001 50.6441 71.6745 50.6844C71.6525 50.721 71.6214 50.7485 71.5811 50.7668C71.5409 50.7814 71.4896 50.7887 71.4274 50.7887H67.9464C67.9867 51.3671 68.1422 51.7917 68.4131 52.0625C68.684 52.3334 69.0427 52.4688 69.4892 52.4688C69.7089 52.4688 69.8974 52.4432 70.0548 52.392C70.2158 52.3407 70.3549 52.284 70.472 52.2218C70.5928 52.1595 70.6972 52.1028 70.785 52.0515C70.8765 52.0003 70.9644 51.9747 71.0486 51.9747C71.1035 51.9747 71.151 51.9857 71.1913 52.0076C71.2316 52.0296 71.2663 52.0607 71.2956 52.101L71.6909 52.5951C71.5409 52.7708 71.3725 52.9191 71.1858 53.0398C70.9991 53.157 70.8033 53.2521 70.5983 53.3254C70.397 53.3949 70.1902 53.4443 69.9779 53.4736C69.7693 53.5029 69.5661 53.5175 69.3685 53.5175C68.9768 53.5175 68.6126 53.4535 68.2758 53.3254C67.9391 53.1936 67.6462 53.0014 67.3973 52.7488C67.1484 52.4926 66.9526 52.1778 66.8099 51.8045C66.6671 51.4275 66.5957 50.9919 66.5957 50.4977C66.5957 50.1134 66.658 49.7528 66.7824 49.4161C66.9069 49.0757 67.0844 48.781 67.315 48.5321C67.5493 48.2795 67.8329 48.0801 68.166 47.9336C68.5028 47.7872 68.8816 47.714 69.3026 47.714ZM69.33 48.6858C68.9347 48.6858 68.6254 48.7975 68.4021 49.0208C68.1788 49.2441 68.0361 49.5607 67.9739 49.9706H70.5215C70.5215 49.7949 70.4977 49.6302 70.4501 49.4765C70.4025 49.3191 70.3293 49.1818 70.2305 49.0647C70.1316 48.9476 70.0072 48.8561 69.8571 48.7902C69.707 48.7206 69.5313 48.6858 69.33 48.6858Z" fill="#4D4D4D"/>
<path d="M77.3646 53.4352H76.7552C76.6271 53.4352 76.5264 53.4169 76.4532 53.3803C76.38 53.34 76.3251 53.2613 76.2885 53.1442L76.1677 52.7434C76.025 52.8715 75.884 52.9849 75.7449 53.0838C75.6095 53.1789 75.4686 53.2595 75.3222 53.3254C75.1758 53.3912 75.0202 53.4407 74.8555 53.4736C74.6908 53.5065 74.5077 53.523 74.3064 53.523C74.0685 53.523 73.8489 53.4919 73.6476 53.4297C73.4462 53.3638 73.2724 53.2668 73.126 53.1387C72.9832 53.0106 72.8716 52.8513 72.791 52.661C72.7105 52.4707 72.6702 52.2492 72.6702 51.9966C72.6702 51.7843 72.7251 51.5757 72.835 51.3707C72.9484 51.1621 73.1351 50.9754 73.395 50.8107C73.6549 50.6423 74.0008 50.5032 74.4327 50.3934C74.8646 50.2836 75.4009 50.2214 76.0414 50.2067V49.8773C76.0414 49.5003 75.9609 49.2221 75.7998 49.0427C75.6424 48.8597 75.4118 48.7682 75.108 48.7682C74.8884 48.7682 74.7054 48.7938 74.559 48.8451C74.4126 48.8963 74.2845 48.9549 74.1746 49.0208C74.0685 49.083 73.9697 49.1397 73.8782 49.191C73.7867 49.2422 73.686 49.2678 73.5762 49.2678C73.4847 49.2678 73.406 49.2441 73.3401 49.1965C73.2742 49.1489 73.2211 49.0903 73.1809 49.0208L72.9338 48.587C73.5817 47.994 74.3632 47.6975 75.2782 47.6975C75.6077 47.6975 75.9005 47.7525 76.1567 47.8623C76.4166 47.9684 76.6362 48.1185 76.8156 48.3125C76.9949 48.5028 77.1304 48.7316 77.2219 48.9988C77.3171 49.266 77.3646 49.5588 77.3646 49.8773V53.4352ZM74.7292 52.5896C74.8683 52.5896 74.9964 52.5768 75.1135 52.5512C75.2307 52.5256 75.3405 52.4871 75.443 52.4359C75.5491 52.3846 75.6498 52.3224 75.7449 52.2492C75.8438 52.1723 75.9426 52.0827 76.0414 51.9802V51.0303C75.6461 51.0486 75.3148 51.0834 75.0476 51.1346C74.7841 51.1822 74.5718 51.2444 74.4107 51.3213C74.2497 51.3982 74.1344 51.4879 74.0648 51.5903C73.9989 51.6928 73.966 51.8045 73.966 51.9253C73.966 52.1632 74.0356 52.3334 74.1746 52.4359C74.3174 52.5384 74.5023 52.5896 74.7292 52.5896Z" fill="#4D4D4D"/>
<path d="M80.252 45.2762V53.4352H78.8958V45.2762H80.252Z" fill="#4D4D4D"/>
<path d="M83.7493 53.523C83.2625 53.523 82.8873 53.3857 82.6237 53.1112C82.3602 52.833 82.2284 52.4505 82.2284 51.9637V48.8176H81.6574C81.5842 48.8176 81.5201 48.7938 81.4652 48.7462C81.414 48.6987 81.3884 48.6273 81.3884 48.5321V47.994L82.2943 47.8458L82.5798 46.3084C82.5944 46.2352 82.6274 46.1785 82.6786 46.1382C82.7335 46.098 82.8013 46.0778 82.8818 46.0778H83.5846V47.8513H85.067V48.8176H83.5846V51.8704C83.5846 52.0461 83.6285 52.1833 83.7163 52.2821C83.8042 52.381 83.9213 52.4304 84.0677 52.4304C84.1519 52.4304 84.2215 52.4212 84.2764 52.4029C84.3349 52.381 84.3844 52.359 84.4246 52.3371C84.4685 52.3151 84.507 52.295 84.5399 52.2767C84.5729 52.2547 84.6058 52.2437 84.6387 52.2437C84.679 52.2437 84.712 52.2547 84.7376 52.2767C84.7632 52.295 84.7907 52.3242 84.8199 52.3645L85.2262 53.0234C85.0286 53.1881 84.8016 53.3125 84.5454 53.3967C84.2892 53.4809 84.0238 53.523 83.7493 53.523Z" fill="#4D4D4D"/>
<path d="M86.2554 53.4352V45.2762H87.6115V48.4113C87.8312 48.2027 88.0727 48.0343 88.3363 47.9062C88.5998 47.7781 88.9091 47.714 89.2642 47.714C89.5717 47.714 89.8444 47.7671 90.0823 47.8732C90.3202 47.9757 90.5179 48.1222 90.6753 48.3125C90.8363 48.4992 90.9571 48.7243 91.0376 48.9878C91.1218 49.2477 91.1639 49.535 91.1639 49.8498V53.4352H89.8078V49.8498C89.8078 49.5058 89.7272 49.2404 89.5662 49.0537C89.4088 48.8634 89.1708 48.7682 88.8524 48.7682C88.6181 48.7682 88.3985 48.8213 88.1935 48.9274C87.9886 49.0336 87.7946 49.1782 87.6115 49.3612V53.4352H86.2554Z" fill="#4D4D4D"/>
<path d="M99.1715 46.9399C99.1313 47.0204 99.0837 47.0771 99.0288 47.1101C98.9775 47.143 98.9153 47.1595 98.8421 47.1595C98.7689 47.1595 98.6865 47.132 98.595 47.0771C98.5035 47.0186 98.3955 46.9545 98.2711 46.8849C98.1466 46.8154 98.0002 46.7532 97.8318 46.6983C97.6671 46.6397 97.4713 46.6104 97.2443 46.6104C97.0394 46.6104 96.86 46.636 96.7063 46.6873C96.5562 46.7349 96.4281 46.8026 96.3219 46.8904C96.2194 46.9783 96.1426 47.0844 96.0913 47.2089C96.0401 47.3297 96.0145 47.4633 96.0145 47.6097C96.0145 47.7964 96.0657 47.9519 96.1682 48.0764C96.2743 48.2008 96.4134 48.307 96.5855 48.3948C96.7575 48.4827 96.9533 48.5614 97.173 48.6309C97.3926 48.7005 97.6159 48.7755 97.8428 48.8561C98.0734 48.9329 98.2985 49.0244 98.5182 49.1306C98.7378 49.2331 98.9336 49.3648 99.1056 49.5259C99.2777 49.6833 99.4149 49.8773 99.5174 50.1079C99.6236 50.3385 99.6767 50.6185 99.6767 50.9479C99.6767 51.3067 99.6144 51.6434 99.49 51.9582C99.3692 52.2693 99.1898 52.542 98.9519 52.7763C98.7176 53.0069 98.4303 53.1899 98.0899 53.3254C97.7495 53.4571 97.3596 53.523 96.9204 53.523C96.6678 53.523 96.4189 53.4974 96.1737 53.4461C95.9284 53.3986 95.6923 53.329 95.4654 53.2375C95.2421 53.146 95.0317 53.0362 94.834 52.9081C94.64 52.78 94.4661 52.6372 94.3124 52.4798L94.7407 51.7715C94.7809 51.7203 94.8285 51.6782 94.8834 51.6452C94.942 51.6086 95.006 51.5903 95.0756 51.5903C95.1671 51.5903 95.2659 51.6288 95.3721 51.7056C95.4782 51.7788 95.6027 51.8612 95.7454 51.9527C95.8918 52.0442 96.062 52.1284 96.256 52.2053C96.4537 52.2785 96.6898 52.3151 96.9643 52.3151C97.3853 52.3151 97.711 52.2163 97.9416 52.0186C98.1722 51.8173 98.2875 51.5299 98.2875 51.1566C98.2875 50.9479 98.2345 50.7777 98.1283 50.646C98.0258 50.5142 97.8886 50.4044 97.7165 50.3165C97.5445 50.225 97.3487 50.1482 97.129 50.0859C96.9094 50.0237 96.6861 49.956 96.4592 49.8828C96.2323 49.8096 96.009 49.7217 95.7893 49.6192C95.5697 49.5167 95.3739 49.3831 95.2019 49.2184C95.0298 49.0537 94.8907 48.8487 94.7846 48.6035C94.6821 48.3546 94.6308 48.0489 94.6308 47.6866C94.6308 47.3974 94.6876 47.1156 94.8011 46.841C94.9182 46.5665 95.0866 46.3231 95.3062 46.1108C95.5295 45.8985 95.8022 45.7283 96.1243 45.6002C96.4464 45.4721 96.8142 45.408 97.2279 45.408C97.6964 45.408 98.1283 45.4812 98.5236 45.6276C98.919 45.774 99.2557 45.979 99.5339 46.2426L99.1715 46.9399Z" fill="#4D4D4D"/>
<path d="M102.281 47.8019V53.4352H100.924V47.8019H102.281ZM102.484 46.1602C102.484 46.2773 102.46 46.3871 102.412 46.4896C102.365 46.5921 102.301 46.6818 102.22 46.7587C102.143 46.8355 102.052 46.8978 101.946 46.9453C101.84 46.9893 101.726 47.0112 101.605 47.0112C101.488 47.0112 101.377 46.9893 101.27 46.9453C101.168 46.8978 101.078 46.8355 101.001 46.7587C100.924 46.6818 100.862 46.5921 100.815 46.4896C100.771 46.3871 100.749 46.2773 100.749 46.1602C100.749 46.0394 100.771 45.9259 100.815 45.8198C100.862 45.7136 100.924 45.6221 101.001 45.5453C101.078 45.4684 101.168 45.408 101.27 45.3641C101.377 45.3165 101.488 45.2927 101.605 45.2927C101.726 45.2927 101.84 45.3165 101.946 45.3641C102.052 45.408 102.143 45.4684 102.22 45.5453C102.301 45.6221 102.365 45.7136 102.412 45.8198C102.46 45.9259 102.484 46.0394 102.484 46.1602Z" fill="#4D4D4D"/>
<path d="M103.928 53.4352V47.8019H104.757C104.932 47.8019 105.048 47.8842 105.103 48.0489L105.196 48.4937C105.309 48.3765 105.428 48.2704 105.553 48.1752C105.681 48.0801 105.815 47.9977 105.954 47.9282C106.096 47.8586 106.248 47.8055 106.409 47.7689C106.57 47.7323 106.746 47.714 106.936 47.714C107.244 47.714 107.517 47.7671 107.755 47.8732C107.992 47.9757 108.19 48.1222 108.347 48.3125C108.509 48.4992 108.629 48.7243 108.71 48.9878C108.794 49.2477 108.836 49.535 108.836 49.8498V53.4352H107.48V49.8498C107.48 49.5058 107.399 49.2404 107.238 49.0537C107.081 48.8634 106.843 48.7682 106.525 48.7682C106.29 48.7682 106.071 48.8213 105.866 48.9274C105.661 49.0336 105.467 49.1782 105.284 49.3612V53.4352H103.928Z" fill="#4D4D4D"/>
<path d="M114.237 48.9933C114.197 49.0446 114.157 49.0848 114.117 49.1141C114.08 49.1434 114.025 49.158 113.952 49.158C113.882 49.158 113.815 49.1379 113.749 49.0976C113.683 49.0537 113.604 49.0061 113.513 48.9549C113.421 48.9 113.311 48.8524 113.183 48.8121C113.059 48.7682 112.903 48.7462 112.716 48.7462C112.478 48.7462 112.27 48.7902 112.09 48.878C111.911 48.9622 111.761 49.0848 111.64 49.2459C111.523 49.4069 111.435 49.6028 111.377 49.8334C111.318 50.0603 111.289 50.3184 111.289 50.6075C111.289 50.9077 111.32 51.1749 111.382 51.4092C111.448 51.6434 111.541 51.8411 111.662 52.0021C111.783 52.1595 111.929 52.2803 112.101 52.3645C112.274 52.445 112.468 52.4853 112.683 52.4853C112.899 52.4853 113.073 52.4597 113.205 52.4084C113.341 52.3535 113.454 52.295 113.545 52.2327C113.637 52.1668 113.716 52.1083 113.782 52.057C113.851 52.0021 113.928 51.9747 114.012 51.9747C114.122 51.9747 114.204 52.0168 114.259 52.101L114.649 52.5951C114.499 52.7708 114.336 52.9191 114.16 53.0398C113.985 53.157 113.802 53.2521 113.611 53.3254C113.425 53.3949 113.231 53.4443 113.029 53.4736C112.828 53.5029 112.629 53.5175 112.431 53.5175C112.083 53.5175 111.756 53.4535 111.448 53.3254C111.141 53.1936 110.872 53.0032 110.641 52.7543C110.414 52.5054 110.233 52.2016 110.097 51.8429C109.966 51.4805 109.9 51.0687 109.9 50.6075C109.9 50.1939 109.958 49.8114 110.075 49.46C110.196 49.105 110.372 48.7993 110.603 48.5431C110.833 48.2832 111.119 48.0801 111.459 47.9336C111.799 47.7872 112.191 47.714 112.634 47.714C113.055 47.714 113.423 47.7817 113.738 47.9172C114.056 48.0526 114.342 48.2466 114.594 48.4992L114.237 48.9933Z" fill="#4D4D4D"/>
<path d="M117.95 47.714C118.305 47.714 118.63 47.7708 118.927 47.8842C119.227 47.9977 119.485 48.1642 119.701 48.3839C119.917 48.5998 120.085 48.867 120.206 49.1855C120.327 49.5003 120.387 49.8608 120.387 50.2671C120.387 50.3696 120.382 50.4556 120.371 50.5252C120.364 50.5911 120.347 50.6441 120.321 50.6844C120.3 50.721 120.268 50.7485 120.228 50.7668C120.188 50.7814 120.137 50.7887 120.074 50.7887H116.593C116.634 51.3671 116.789 51.7917 117.06 52.0625C117.331 52.3334 117.69 52.4688 118.136 52.4688C118.356 52.4688 118.544 52.4432 118.702 52.392C118.863 52.3407 119.002 52.284 119.119 52.2218C119.24 52.1595 119.344 52.1028 119.432 52.0515C119.524 52.0003 119.611 51.9747 119.696 51.9747C119.75 51.9747 119.798 51.9857 119.838 52.0076C119.879 52.0296 119.913 52.0607 119.943 52.101L120.338 52.5951C120.188 52.7708 120.02 52.9191 119.833 53.0398C119.646 53.157 119.45 53.2521 119.245 53.3254C119.044 53.3949 118.837 53.4443 118.625 53.4736C118.416 53.5029 118.213 53.5175 118.015 53.5175C117.624 53.5175 117.26 53.4535 116.923 53.3254C116.586 53.1936 116.293 53.0014 116.044 52.7488C115.795 52.4926 115.6 52.1778 115.457 51.8045C115.314 51.4275 115.243 50.9919 115.243 50.4977C115.243 50.1134 115.305 49.7528 115.429 49.4161C115.554 49.0757 115.731 48.781 115.962 48.5321C116.196 48.2795 116.48 48.0801 116.813 47.9336C117.15 47.7872 117.529 47.714 117.95 47.714ZM117.977 48.6858C117.582 48.6858 117.272 48.7975 117.049 49.0208C116.826 49.2441 116.683 49.5607 116.621 49.9706H119.168C119.168 49.7949 119.145 49.6302 119.097 49.4765C119.05 49.3191 118.976 49.1818 118.877 49.0647C118.779 48.9476 118.654 48.8561 118.504 48.7902C118.354 48.7206 118.178 48.6858 117.977 48.6858Z" fill="#4D4D4D"/>
<path d="M126.411 45.408C126.777 45.408 127.112 45.4629 127.416 45.5727C127.72 45.6789 127.979 45.8308 128.195 46.0284C128.411 46.2261 128.58 46.464 128.701 46.7422C128.821 47.0204 128.882 47.3297 128.882 47.6701C128.882 47.9629 128.838 48.2338 128.75 48.4827C128.666 48.7316 128.55 48.9695 128.404 49.1965C128.261 49.4234 128.093 49.643 127.899 49.8553C127.705 50.0676 127.502 50.2836 127.289 50.5032L125.5 52.3316C125.675 52.2803 125.847 52.2419 126.016 52.2163C126.184 52.187 126.345 52.1723 126.499 52.1723H128.536C128.682 52.1723 128.797 52.2144 128.882 52.2986C128.97 52.3791 129.013 52.4871 129.013 52.6226V53.4352H123.567V52.9849C123.567 52.8934 123.585 52.7983 123.622 52.6994C123.662 52.6006 123.724 52.5091 123.808 52.4249L126.219 50.0091C126.42 49.8041 126.599 49.6083 126.757 49.4216C126.918 49.2349 127.051 49.0501 127.158 48.867C127.267 48.684 127.35 48.4992 127.405 48.3125C127.463 48.1222 127.493 47.9227 127.493 47.714C127.493 47.5237 127.465 47.3571 127.41 47.2144C127.355 47.068 127.277 46.9453 127.174 46.8465C127.072 46.7477 126.949 46.6745 126.806 46.6269C126.667 46.5756 126.51 46.55 126.334 46.55C126.008 46.55 125.739 46.6324 125.527 46.7971C125.318 46.9618 125.172 47.1833 125.088 47.4615C125.047 47.6006 124.987 47.7012 124.907 47.7634C124.826 47.822 124.724 47.8513 124.599 47.8513C124.544 47.8513 124.484 47.8458 124.418 47.8348L123.704 47.7085C123.759 47.3279 123.865 46.9948 124.023 46.7093C124.18 46.4201 124.376 46.1803 124.61 45.99C124.848 45.796 125.119 45.6514 125.423 45.5562C125.73 45.4574 126.06 45.408 126.411 45.408Z" fill="#4D4D4D"/>
<path d="M135.68 49.4655C135.68 50.1573 135.605 50.7594 135.455 51.2719C135.308 51.7807 135.103 52.2016 134.84 52.5347C134.58 52.8678 134.271 53.1167 133.912 53.2814C133.557 53.4425 133.172 53.523 132.759 53.523C132.345 53.523 131.961 53.4425 131.606 53.2814C131.254 53.1167 130.949 52.8678 130.689 52.5347C130.429 52.2016 130.226 51.7807 130.079 51.2719C129.933 50.7594 129.86 50.1573 129.86 49.4655C129.86 48.77 129.933 48.1679 130.079 47.6591C130.226 47.1503 130.429 46.7294 130.689 46.3963C130.949 46.0632 131.254 45.8161 131.606 45.6551C131.961 45.4904 132.345 45.408 132.759 45.408C133.172 45.408 133.557 45.4904 133.912 45.6551C134.271 45.8161 134.58 46.0632 134.84 46.3963C135.103 46.7294 135.308 47.1503 135.455 47.6591C135.605 48.1679 135.68 48.77 135.68 49.4655ZM134.28 49.4655C134.28 48.8908 134.238 48.415 134.153 48.038C134.069 47.6609 133.956 47.3608 133.813 47.1375C133.674 46.9142 133.513 46.7587 133.33 46.6708C133.147 46.5793 132.957 46.5336 132.759 46.5336C132.565 46.5336 132.376 46.5793 132.193 46.6708C132.014 46.7587 131.855 46.9142 131.716 47.1375C131.577 47.3608 131.465 47.6609 131.381 48.038C131.3 48.415 131.26 48.8908 131.26 49.4655C131.26 50.0402 131.3 50.516 131.381 50.893C131.465 51.2701 131.577 51.5702 131.716 51.7935C131.855 52.0168 132.014 52.1742 132.193 52.2657C132.376 52.3535 132.565 52.3974 132.759 52.3974C132.957 52.3974 133.147 52.3535 133.33 52.2657C133.513 52.1742 133.674 52.0168 133.813 51.7935C133.956 51.5702 134.069 51.2701 134.153 50.893C134.238 50.516 134.28 50.0402 134.28 49.4655Z" fill="#4D4D4D"/>
<path d="M142.16 49.4655C142.16 50.1573 142.084 50.7594 141.934 51.2719C141.788 51.7807 141.583 52.2016 141.319 52.5347C141.06 52.8678 140.75 53.1167 140.392 53.2814C140.036 53.4425 139.652 53.523 139.239 53.523C138.825 53.523 138.441 53.4425 138.086 53.2814C137.734 53.1167 137.428 52.8678 137.169 52.5347C136.909 52.2016 136.706 51.7807 136.559 51.2719C136.413 50.7594 136.34 50.1573 136.34 49.4655C136.34 48.77 136.413 48.1679 136.559 47.6591C136.706 47.1503 136.909 46.7294 137.169 46.3963C137.428 46.0632 137.734 45.8161 138.086 45.6551C138.441 45.4904 138.825 45.408 139.239 45.408C139.652 45.408 140.036 45.4904 140.392 45.6551C140.75 45.8161 141.06 46.0632 141.319 46.3963C141.583 46.7294 141.788 47.1503 141.934 47.6591C142.084 48.1679 142.16 48.77 142.16 49.4655ZM140.759 49.4655C140.759 48.8908 140.717 48.415 140.633 48.038C140.549 47.6609 140.435 47.3608 140.293 47.1375C140.154 46.9142 139.993 46.7587 139.81 46.6708C139.627 46.5793 139.436 46.5336 139.239 46.5336C139.045 46.5336 138.856 46.5793 138.673 46.6708C138.494 46.7587 138.334 46.9142 138.195 47.1375C138.056 47.3608 137.945 47.6609 137.86 48.038C137.78 48.415 137.74 48.8908 137.74 49.4655C137.74 50.0402 137.78 50.516 137.86 50.893C137.945 51.2701 138.056 51.5702 138.195 51.7935C138.334 52.0168 138.494 52.1742 138.673 52.2657C138.856 52.3535 139.045 52.3974 139.239 52.3974C139.436 52.3974 139.627 52.3535 139.81 52.2657C139.993 52.1742 140.154 52.0168 140.293 51.7935C140.435 51.5702 140.549 51.2701 140.633 50.893C140.717 50.516 140.759 50.0402 140.759 49.4655Z" fill="#4D4D4D"/>
<path d="M147.717 50.4428H148.716V51.228C148.716 51.3012 148.692 51.3652 148.645 51.4201C148.597 51.4714 148.528 51.497 148.436 51.497H147.717V53.4352H146.531V51.497H143.182C143.09 51.497 143.01 51.4695 142.94 51.4146C142.87 51.3561 142.827 51.2847 142.808 51.2005L142.671 50.5142L146.432 45.4904H147.717V50.4428ZM146.531 47.8458C146.531 47.7287 146.535 47.6024 146.542 47.4669C146.549 47.3315 146.562 47.1906 146.58 47.0442L144.115 50.4428H146.531V47.8458Z" fill="#4D4D4D"/>
</svg>
